<svg xmlns="http://www.w3.org/2000/svg" width="1098" height="685" viewBox="0 0 1098 685"><defs><linearGradient id="bgGreen" x1="0" y1="0" x2="1" y2="1"><stop offset="0" stop-color="#34D399"/><stop offset="1" stop-color="#10B981"/></linearGradient></defs><rect width="1098" height="685" fill="#FFFFFF"/><circle cx="1078" cy="675" r="230.0" fill="none" stroke="#818CF8" stroke-width="14" opacity="0.1"/><circle cx="1078" cy="675" r="165.6" fill="none" stroke="#818CF8" stroke-width="10" opacity="0.1"/><circle cx="1078" cy="675" r="105.8" fill="none" stroke="#818CF8" stroke-width="10" opacity="0.1"/><circle cx="1078" cy="675" r="41.4" fill="#818CF8" opacity="0.1"/><g transform="translate(64.5,64.5) scale(1) translate(0,0)"><defs><linearGradient id="mtcb" x1="0" y1="0" x2="1" y2="1"><stop offset="0" stop-color="#818CF8"/><stop offset="1" stop-color="#4338CA"/></linearGradient></defs><defs><linearGradient id="mgcb" x1="0" y1="0" x2="1" y2="1"><stop offset="0" stop-color="#34D399"/><stop offset="1" stop-color="#10B981"/></linearGradient></defs><rect width="120" height="120" rx="30" fill="url(#mtcb)"/><circle cx="60" cy="60" r="33" fill="none" stroke="#fff" stroke-width="9"/><circle cx="60" cy="60" r="13" fill="url(#mgcb)"/></g><g transform="translate(733.5,82.5) scale(0.6857142857142857) translate(1.6,-37.9)"><defs><linearGradient id="wgetresolved-wordmark.svgacbw" x1="0" y1="0" x2="1" y2="1"><stop offset="0" stop-color="#34D399"/><stop offset="1" stop-color="#10B981"/></linearGradient></defs><text x="10" y="96" font-family="Manrope" font-size="60" letter-spacing="-1.2"><tspan font-weight="600" fill="#0F172A">get</tspan><tspan font-weight="800" fill="#4F46E5">res</tspan><tspan font-weight="800" fill="transparent">o</tspan><tspan font-weight="800" fill="#4F46E5">lved</tspan></text><circle cx="212.65" cy="79.8" r="13.41" fill="none" stroke="url(#wgetresolved-wordmark.svgacbw)" stroke-width="6"/><circle cx="212.65" cy="79.8" r="4.79" fill="url(#wgetresolved-wordmark.svgacbw)"/><circle cx="359.08" cy="90" r="5" fill="url(#wgetresolved-wordmark.svgacbw)"/><text x="372.08" y="96" font-family="Manrope" font-size="60" font-weight="800" letter-spacing="-1.2" fill="url(#wgetresolved-wordmark.svgacbw)">id</text></g><text x="64.5" y="277.5" font-family="Manrope" font-size="46" font-weight="800" letter-spacing="-0.5" fill="#0F172A">[Nama Lengkap]</text><text x="64.5" y="329.5" font-family="Manrope" font-size="26" font-weight="500" letter-spacing="0.5" fill="#4F46E5">[Jabatan]</text><rect x="64.5" y="369.5" width="120" height="4" rx="2" fill="url(#bgGreen)"/><circle cx="73.5" cy="418.5" r="9" fill="none" stroke="#10B981" stroke-width="3"/><circle cx="73.5" cy="418.5" r="3" fill="#10B981"/><text x="104.5" y="427.5" font-family="Manrope" font-size="27" font-weight="500" fill="#0F172A">+62 8xx-xxxx-xxxx</text><circle cx="73.5" cy="476.5" r="9" fill="none" stroke="#10B981" stroke-width="3"/><circle cx="73.5" cy="476.5" r="3" fill="#10B981"/><text x="104.5" y="485.5" font-family="Manrope" font-size="27" font-weight="500" fill="#0F172A">nama@getresolved.id</text><circle cx="73.5" cy="534.5" r="9" fill="none" stroke="#10B981" stroke-width="3"/><circle cx="73.5" cy="534.5" r="3" fill="#10B981"/><text x="104.5" y="543.5" font-family="Manrope" font-size="27" font-weight="700" fill="#4F46E5">getresolved.id</text><circle cx="73.5" cy="592.5" r="9" fill="none" stroke="#10B981" stroke-width="3"/><circle cx="73.5" cy="592.5" r="3" fill="#10B981"/><text x="104.5" y="601.5" font-family="Manrope" font-size="27" font-weight="500" fill="#0F172A">[Alamat]</text></svg>