<svg xmlns="http://www.w3.org/2000/svg" width="1098" height="685" viewBox="0 0 1098 685"><defs><linearGradient id="bgIndigo" x1="0" y1="0" x2="1" y2="1"><stop offset="0" stop-color="#818CF8"/><stop offset="1" stop-color="#4338CA"/></linearGradient><linearGradient id="bgDark" x1="0" y1="0" x2="1" y2="1"><stop offset="0" stop-color="#141B35"/><stop offset="1" stop-color="#0B1020"/></linearGradient></defs><rect width="1098" height="685" fill="url(#bgDark)"/><circle cx="1058" cy="40" r="300.0" fill="none" stroke="#818CF8" stroke-width="14" opacity="0.1"/><circle cx="1058" cy="40" r="216.0" fill="none" stroke="#818CF8" stroke-width="10" opacity="0.1"/><circle cx="1058" cy="40" r="138.0" fill="none" stroke="#818CF8" stroke-width="10" opacity="0.1"/><circle cx="1058" cy="40" r="54.0" fill="#818CF8" opacity="0.1"/><circle cx="60" cy="655" r="240.0" fill="none" stroke="#10B981" stroke-width="14" opacity="0.09"/><circle cx="60" cy="655" r="172.8" fill="none" stroke="#10B981" stroke-width="10" opacity="0.09"/><circle cx="60" cy="655" r="110.4" fill="none" stroke="#10B981" stroke-width="10" opacity="0.09"/><circle cx="60" cy="655" r="43.2" fill="#10B981" opacity="0.09"/><rect x="17.5" y="577.5" width="1063" height="0"/><g transform="translate(454,167.5) scale(1.5833333333333333) translate(0,0)"><circle cx="60" cy="60" r="33" fill="none" stroke="#fff" stroke-width="9"/><circle cx="60" cy="60" r="13" fill="#10B981"/></g><g transform="translate(239,407.5) scale(1.417142857142857) translate(1.6,-37.9)"><defs><linearGradient id="wgetresolved-wordmark-inverse.svgacfw" x1="0" y1="0" x2="1" y2="1"><stop offset="0" stop-color="#34D399"/><stop offset="1" stop-color="#10B981"/></linearGradient></defs><text x="10" y="96" font-family="Manrope" font-size="60" letter-spacing="-1.2"><tspan font-weight="600" fill="#E2E8F0">get</tspan><tspan font-weight="800" fill="#818CF8">res</tspan><tspan font-weight="800" fill="transparent">o</tspan><tspan font-weight="800" fill="#818CF8">lved</tspan></text><circle cx="212.65" cy="79.8" r="13.41" fill="none" stroke="url(#wgetresolved-wordmark-inverse.svgacfw)" stroke-width="6"/><circle cx="212.65" cy="79.8" r="4.79" fill="url(#wgetresolved-wordmark-inverse.svgacfw)"/><circle cx="359.08" cy="90" r="5" fill="url(#wgetresolved-wordmark-inverse.svgacfw)"/><text x="372.08" y="96" font-family="Manrope" font-size="60" font-weight="800" letter-spacing="-1.2" fill="url(#wgetresolved-wordmark-inverse.svgacfw)">id</text></g><text x="549" y="517.5" text-anchor="middle" font-family="Manrope" font-size="22" font-weight="500" letter-spacing="3" fill="#818CF8">EVERY REQUEST GETS RESOLVED</text></svg>