<svg xmlns="http://www.w3.org/2000/svg" width="2480" height="3508" viewBox="0 0 2480 3508"><defs><linearGradient id="bgGreen" x1="0" y1="0" x2="1" y2="1"><stop offset="0" stop-color="#34D399"/><stop offset="1" stop-color="#10B981"/></linearGradient><linearGradient id="bgIndigo" x1="0" y1="0" x2="1" y2="1"><stop offset="0" stop-color="#818CF8"/><stop offset="1" stop-color="#4338CA"/></linearGradient></defs><rect width="2480" height="3508" fill="#FFFFFF"/><g transform="translate(236,150) scale(1.8742857142857143) translate(1.6,-37.9)"><defs><linearGradient id="wgetresolved-wordmark.svgalh" x1="0" y1="0" x2="1" y2="1"><stop offset="0" stop-color="#34D399"/><stop offset="1" stop-color="#10B981"/></linearGradient></defs><text x="10" y="96" font-family="Manrope" font-size="60" letter-spacing="-1.2"><tspan font-weight="600" fill="#0F172A">get</tspan><tspan font-weight="800" fill="#4F46E5">res</tspan><tspan font-weight="800" fill="transparent">o</tspan><tspan font-weight="800" fill="#4F46E5">lved</tspan></text><circle cx="212.65" cy="79.8" r="13.41" fill="none" stroke="url(#wgetresolved-wordmark.svgalh)" stroke-width="6"/><circle cx="212.65" cy="79.8" r="4.79" fill="url(#wgetresolved-wordmark.svgalh)"/><circle cx="359.08" cy="90" r="5" fill="url(#wgetresolved-wordmark.svgalh)"/><text x="372.08" y="96" font-family="Manrope" font-size="60" font-weight="800" letter-spacing="-1.2" fill="url(#wgetresolved-wordmark.svgalh)">id</text></g><g transform="translate(2094,130) scale(1.25) translate(0,0)"><defs><linearGradient id="mtlhm" x1="0" y1="0" x2="1" y2="1"><stop offset="0" stop-color="#818CF8"/><stop offset="1" stop-color="#4338CA"/></linearGradient></defs><defs><linearGradient id="mglhm" x1="0" y1="0" x2="1" y2="1"><stop offset="0" stop-color="#34D399"/><stop offset="1" stop-color="#10B981"/></linearGradient></defs><rect width="120" height="120" rx="30" fill="url(#mtlhm)"/><circle cx="60" cy="60" r="33" fill="none" stroke="#fff" stroke-width="9"/><circle cx="60" cy="60" r="13" fill="url(#mglhm)"/></g><defs><linearGradient id="ruleg" x1="0" y1="0" x2="1" y2="0"><stop offset="0" stop-color="#4F46E5"/><stop offset="0.6" stop-color="#4F46E5"/><stop offset="1" stop-color="#10B981"/></linearGradient></defs><rect x="236" y="320" width="2008" height="5" rx="2.5" fill="url(#ruleg)"/><circle cx="2100" cy="1754" r="300.0" fill="none" stroke="#818CF8" stroke-width="14" opacity="0.05"/><circle cx="2100" cy="1754" r="216.0" fill="none" stroke="#818CF8" stroke-width="10" opacity="0.05"/><circle cx="2100" cy="1754" r="138.0" fill="none" stroke="#818CF8" stroke-width="10" opacity="0.05"/><circle cx="2100" cy="1754" r="54.0" fill="#818CF8" opacity="0.05"/><rect x="236" y="3172" width="2008" height="2" fill="#E8EDF3"/><circle cx="250" cy="3234" r="13" fill="none" stroke="#10B981" stroke-width="4"/><circle cx="250" cy="3234" r="4.5" fill="#10B981"/><text x="280" y="3242" font-family="Manrope" font-size="30" font-weight="700" fill="#4F46E5">getresolved.id</text><text x="1240" y="3242" text-anchor="middle" font-family="Manrope" font-size="28" font-weight="500" fill="#64748B">+62 8xx-xxxx-xxxx</text><text x="2244" y="3242" text-anchor="end" font-family="Manrope" font-size="28" font-weight="500" fill="#64748B">nama@getresolved.id</text></svg>