<svg xmlns="http://www.w3.org/2000/svg" viewBox="-1.6 37.9 439.3 87.4" width="439.3" height="87.4"><path d="M27.55 111.30Q24.94 111.30 22.49 110.49Q20.05 109.68 18.04 108.11Q16.03 106.53 14.71 104.22L20.50 101.28Q21.55 103.35 23.50 104.31Q25.45 105.27 27.61 105.27Q30.28 105.27 32.17 104.33Q34.06 103.38 35.03 101.49Q36.01 99.60 35.98 96.81L35.98 87.75L36.73 87.75L36.73 63.60L42.28 63.60L42.28 96.87Q42.28 98.16 42.19 99.33Q42.10 100.50 41.86 101.67Q41.17 104.94 39.23 107.07Q37.30 109.20 34.31 110.25Q31.33 111.30 27.55 111.30M27.07 96.90Q22.54 96.90 19.25 94.65Q15.97 92.40 14.18 88.52Q12.40 84.63 12.40 79.77Q12.40 74.88 14.20 71.03Q16 67.17 19.31 64.94Q22.63 62.70 27.19 62.70Q31.78 62.70 34.91 64.94Q38.05 67.17 39.66 71.04Q41.26 74.91 41.26 79.77Q41.26 84.63 39.64 88.50Q38.02 92.37 34.87 94.64Q31.72 96.90 27.07 96.90M27.94 91.23Q31.03 91.23 32.98 89.76Q34.93 88.29 35.83 85.71Q36.73 83.13 36.73 79.77Q36.73 76.41 35.81 73.83Q34.90 71.25 32.99 69.81Q31.09 68.37 28.15 68.37Q25.03 68.37 23.02 69.90Q21.01 71.43 20.04 74.01Q19.06 76.59 19.06 79.77Q19.06 82.98 20.04 85.58Q21.01 88.17 22.98 89.70Q24.94 91.23 27.94 91.23M63.85 96.90Q59.02 96.90 55.37 94.78Q51.73 92.67 49.70 88.88Q47.68 85.08 47.68 80.07Q47.68 74.76 49.67 70.86Q51.67 66.96 55.24 64.83Q58.81 62.70 63.55 62.70Q68.50 62.70 71.98 65Q75.46 67.29 77.18 71.52Q78.91 75.75 78.55 81.57L72.28 81.57L72.28 79.29Q72.22 73.65 70.13 70.95Q68.05 68.25 63.79 68.25Q59.08 68.25 56.71 71.22Q54.34 74.19 54.34 79.80Q54.34 85.14 56.71 88.06Q59.08 90.99 63.55 90.99Q66.49 90.99 68.63 89.66Q70.78 88.32 71.98 85.83L78.13 87.78Q76.24 92.13 72.40 94.52Q68.56 96.90 63.85 96.90M75.43 81.57L52.30 81.57L52.30 76.68L75.43 76.68M102.61 90.69L102.61 96Q99.55 96.60 96.61 96.51Q93.67 96.42 91.36 95.37Q89.05 94.32 87.88 92.07Q86.83 90.06 86.75 87.97Q86.68 85.89 86.68 83.25L86.68 54.60L92.98 54.60L92.98 82.95Q92.98 84.90 93.02 86.34Q93.07 87.78 93.64 88.77Q94.72 90.63 97.07 90.89Q99.43 91.14 102.61 90.69M102.61 68.64L80.47 68.64L80.47 63.60L102.61 63.60" fill="#FFFFFF"/><path d="M116.44 96L108.22 96L108.22 63.60L115.42 63.60L115.42 71.52L114.64 70.50Q115.27 68.82 116.32 67.44Q117.37 66.06 118.90 65.16Q120.07 64.44 121.45 64.03Q122.83 63.63 124.30 63.52Q125.77 63.42 127.24 63.60L127.24 71.22Q125.89 70.80 124.10 70.94Q122.32 71.07 120.88 71.76Q119.44 72.42 118.45 73.52Q117.46 74.61 116.95 76.09Q116.44 77.58 116.44 79.44M146.80 96.90Q141.82 96.90 138.02 94.75Q134.23 92.61 132.08 88.84Q129.94 85.08 129.94 80.22Q129.94 74.91 132.04 70.98Q134.14 67.05 137.83 64.88Q141.52 62.70 146.32 62.70Q151.42 62.70 154.99 65.10Q158.56 67.50 160.27 71.85Q161.98 76.20 161.47 82.08L153.40 82.08L153.40 79.08Q153.40 74.13 151.82 71.95Q150.25 69.78 146.68 69.78Q142.51 69.78 140.54 72.31Q138.58 74.85 138.58 79.80Q138.58 84.33 140.54 86.81Q142.51 89.28 146.32 89.28Q148.72 89.28 150.43 88.23Q152.14 87.18 153.04 85.20L161.20 87.54Q159.37 91.98 155.42 94.44Q151.48 96.90 146.80 96.90M157.54 82.08L136.06 82.08L136.06 76.02L157.54 76.02M179.68 96.90Q173.56 96.90 169.79 94.13Q166.03 91.35 165.22 86.28L173.56 85.02Q174.07 87.30 175.82 88.59Q177.58 89.88 180.28 89.88Q182.50 89.88 183.70 89.03Q184.90 88.17 184.90 86.64Q184.90 85.68 184.42 85.09Q183.94 84.51 182.27 83.94Q180.61 83.37 177.10 82.44Q173.14 81.42 170.77 80.16Q168.40 78.90 167.35 77.14Q166.30 75.39 166.30 72.90Q166.30 69.78 167.89 67.48Q169.48 65.19 172.37 63.95Q175.27 62.70 179.20 62.70Q183.01 62.70 185.95 63.87Q188.89 65.04 190.70 67.20Q192.52 69.36 192.94 72.30L184.60 73.80Q184.39 72 183.04 70.95Q181.69 69.90 179.38 69.72Q177.13 69.57 175.76 70.32Q174.40 71.07 174.40 72.48Q174.40 73.32 174.98 73.89Q175.57 74.46 177.41 75.06Q179.26 75.66 183.04 76.62Q186.73 77.58 188.96 78.86Q191.20 80.13 192.22 81.92Q193.24 83.70 193.24 86.22Q193.24 91.20 189.64 94.05Q186.04 96.90 179.68 96.90" fill="#FFFFFF"/><path d="M243.82 96L235.66 96L235.66 51.90L243.82 51.90M268.54 96L260.38 96L248.62 63.60L256.78 63.60L264.46 86.04L272.14 63.60L280.30 63.60M299.56 96.90Q294.58 96.90 290.78 94.75Q286.99 92.61 284.84 88.84Q282.70 85.08 282.70 80.22Q282.70 74.91 284.80 70.98Q286.90 67.05 290.59 64.88Q294.28 62.70 299.08 62.70Q304.18 62.70 307.75 65.10Q311.32 67.50 313.03 71.85Q314.74 76.20 314.23 82.08L306.16 82.08L306.16 79.08Q306.16 74.13 304.58 71.95Q303.01 69.78 299.44 69.78Q295.27 69.78 293.30 72.31Q291.34 74.85 291.34 79.80Q291.34 84.33 293.30 86.81Q295.27 89.28 299.08 89.28Q301.48 89.28 303.19 88.23Q304.90 87.18 305.80 85.20L313.96 87.54Q312.13 91.98 308.18 94.44Q304.24 96.90 299.56 96.90M310.30 82.08L288.82 82.08L288.82 76.02L310.30 76.02M332.92 96.90Q328.45 96.90 325.09 94.65Q321.73 92.40 319.85 88.53Q317.98 84.66 317.98 79.80Q317.98 74.85 319.88 71Q321.79 67.14 325.24 64.92Q328.69 62.70 333.34 62.70Q337.96 62.70 341.11 64.95Q344.26 67.20 345.88 71.07Q347.50 74.94 347.50 79.80Q347.50 84.66 345.86 88.53Q344.23 92.40 340.99 94.65Q337.75 96.90 332.92 96.90M334.24 89.64Q336.97 89.64 338.60 88.41Q340.24 87.18 340.96 84.96Q341.68 82.74 341.68 79.80Q341.68 76.86 340.96 74.64Q340.24 72.42 338.66 71.19Q337.09 69.96 334.54 69.96Q331.81 69.96 330.05 71.30Q328.30 72.63 327.46 74.87Q326.62 77.10 326.62 79.80Q326.62 82.53 327.43 84.77Q328.24 87 329.92 88.32Q331.60 89.64 334.24 89.64M348.88 96L341.68 96L341.68 73.80L340.66 73.80L340.66 52.80L348.88 52.80" fill="#FFFFFF"/><circle cx="213.25" cy="79.80" r="13.41" fill="none" stroke="#FFFFFF" stroke-width="6"/><circle cx="213.25" cy="79.80" r="4.79" fill="#FFFFFF"/><circle cx="360.88" cy="90" r="5" fill="#FFFFFF"/><path d="M386.84 59.10L378.68 59.10L378.68 51.90L386.84 51.90L386.84 59.10M386.84 96L378.68 96L378.68 63.60L386.84 63.60M407.78 96.90Q403.31 96.90 399.95 94.65Q396.59 92.40 394.71 88.53Q392.84 84.66 392.84 79.80Q392.84 74.85 394.74 71Q396.65 67.14 400.10 64.92Q403.55 62.70 408.20 62.70Q412.82 62.70 415.97 64.95Q419.12 67.20 420.74 71.07Q422.36 74.94 422.36 79.80Q422.36 84.66 420.72 88.53Q419.09 92.40 415.85 94.65Q412.61 96.90 407.78 96.90M409.10 89.64Q411.83 89.64 413.46 88.41Q415.10 87.18 415.82 84.96Q416.54 82.74 416.54 79.80Q416.54 76.86 415.82 74.64Q415.10 72.42 413.52 71.19Q411.95 69.96 409.40 69.96Q406.67 69.96 404.91 71.30Q403.16 72.63 402.32 74.87Q401.48 77.10 401.48 79.80Q401.48 82.53 402.29 84.77Q403.10 87 404.78 88.32Q406.46 89.64 409.10 89.64M423.74 96L416.54 96L416.54 73.80L415.52 73.80L415.52 52.80L423.74 52.80" fill="#FFFFFF"/></svg>