<svg xmlns="http://www.w3.org/2000/svg" width="820" height="312" viewBox="0 0 820 312"><defs>
<linearGradient id="indigoG" x1="0" y1="0" x2="1" y2="1"><stop offset="0" stop-color="#818CF8"/><stop offset="1" stop-color="#4338CA"/></linearGradient>
<linearGradient id="greenG" x1="0" y1="0" x2="1" y2="1"><stop offset="0" stop-color="#34D399"/><stop offset="1" stop-color="#10B981"/></linearGradient>
<linearGradient id="darkG" x1="0" y1="0" x2="1" y2="1"><stop offset="0" stop-color="#131A33"/><stop offset="1" stop-color="#0B1020"/></linearGradient>
</defs>
  <rect width="820" height="312" fill="#FFFFFF"/>
  <rect width="820" height="312" fill="#F4F6FC"/>
  <g opacity="1"><circle cx="690" cy="156" r="150" fill="none" stroke="#E8EDF3" stroke-width="2"/></g>
  <g opacity="0.22"><circle cx="690" cy="156" r="120" fill="none" stroke="#818CF8" stroke-width="2"/><circle cx="690" cy="156" r="92" fill="none" stroke="#818CF8" stroke-width="2"/></g><g opacity="1"><circle cx="690" cy="156" r="52" fill="none" stroke="#34D399" stroke-width="7"/><circle cx="690" cy="156" r="20.28" fill="url(#greenG)"/></g>
  <g transform="translate(80,92) scale(0.96) translate(1.6,-37.9)"><defs><linearGradient id="wgetresolved-wordmark.svga" x1="0" y1="0" x2="1" y2="1"><stop offset="0" stop-color="#34D399"/><stop offset="1" stop-color="#10B981"/></linearGradient></defs><text x="10" y="96" font-family="Manrope" font-size="60" letter-spacing="-1.2"><tspan font-weight="600" fill="#0F172A">get</tspan><tspan font-weight="800" fill="#4F46E5">res</tspan><tspan font-weight="800" fill="transparent">o</tspan><tspan font-weight="800" fill="#4F46E5">lved</tspan></text><circle cx="212.65" cy="79.8" r="13.41" fill="none" stroke="url(#wgetresolved-wordmark.svga)" stroke-width="6"/><circle cx="212.65" cy="79.8" r="4.79" fill="url(#wgetresolved-wordmark.svga)"/><circle cx="359.08" cy="90" r="5" fill="url(#wgetresolved-wordmark.svga)"/><text x="372.08" y="96" font-family="Manrope" font-size="60" font-weight="800" letter-spacing="-1.2" fill="url(#wgetresolved-wordmark.svga)">id</text></g>
  <text x="84" y="208" font-family="Manrope" font-size="23" font-weight="500" letter-spacing="0.3" fill="#64748B">Setiap permintaan, dituntaskan.</text>
  <rect x="84" y="232" width="64" height="5" rx="2.5" fill="url(#greenG)"/>
  </svg>