<svg xmlns="http://www.w3.org/2000/svg" width="1080" height="1080" viewBox="0 0 1080 1080"><defs>
<linearGradient id="indigoG" x1="0" y1="0" x2="1" y2="1"><stop offset="0" stop-color="#818CF8"/><stop offset="1" stop-color="#4338CA"/></linearGradient>
<linearGradient id="greenG" x1="0" y1="0" x2="1" y2="1"><stop offset="0" stop-color="#34D399"/><stop offset="1" stop-color="#10B981"/></linearGradient>
<linearGradient id="darkG" x1="0" y1="0" x2="1" y2="1"><stop offset="0" stop-color="#131A33"/><stop offset="1" stop-color="#0B1020"/></linearGradient>
</defs>
  <rect width="1080" height="1080" fill="url(#indigoG)"/>
  <rect width="1080" height="1080" fill="#0B1020" opacity="0.20"/>
  <g opacity="0.1"><circle cx="900" cy="210" r="260" fill="none" stroke="#FFFFFF" stroke-width="2"/><circle cx="900" cy="210" r="200" fill="none" stroke="#FFFFFF" stroke-width="2"/><circle cx="900" cy="210" r="140" fill="none" stroke="#FFFFFF" stroke-width="2"/></g>
  <g opacity="0.55"><circle cx="900" cy="210" r="70" fill="none" stroke="#34D399" stroke-width="9"/><circle cx="900" cy="210" r="27.3" fill="url(#greenG)"/></g>
  <!-- top: logo lockup -->
  <g transform="translate(90,84) scale(1) translate(0,0)"><defs><linearGradient id="mt" x1="0" y1="0" x2="1" y2="1"><stop offset="0" stop-color="#818CF8"/><stop offset="1" stop-color="#4338CA"/></linearGradient></defs><defs><linearGradient id="mg" x1="0" y1="0" x2="1" y2="1"><stop offset="0" stop-color="#34D399"/><stop offset="1" stop-color="#10B981"/></linearGradient></defs><rect width="120" height="120" rx="30" fill="url(#mt)"/><circle cx="60" cy="60" r="33" fill="none" stroke="#fff" stroke-width="9"/><circle cx="60" cy="60" r="13" fill="url(#mg)"/></g>
  <g transform="translate(222,96) scale(0.6857142857142857) translate(1.6,-37.9)"><defs><linearGradient id="wgetresolved-wordmark-inverse.svga" x1="0" y1="0" x2="1" y2="1"><stop offset="0" stop-color="#34D399"/><stop offset="1" stop-color="#10B981"/></linearGradient></defs><text x="10" y="96" font-family="Manrope" font-size="60" letter-spacing="-1.2"><tspan font-weight="600" fill="#E2E8F0">get</tspan><tspan font-weight="800" fill="#818CF8">res</tspan><tspan font-weight="800" fill="transparent">o</tspan><tspan font-weight="800" fill="#818CF8">lved</tspan></text><circle cx="212.65" cy="79.8" r="13.41" fill="none" stroke="url(#wgetresolved-wordmark-inverse.svga)" stroke-width="6"/><circle cx="212.65" cy="79.8" r="4.79" fill="url(#wgetresolved-wordmark-inverse.svga)"/><circle cx="359.08" cy="90" r="5" fill="url(#wgetresolved-wordmark-inverse.svga)"/><text x="372.08" y="96" font-family="Manrope" font-size="60" font-weight="800" letter-spacing="-1.2" fill="url(#wgetresolved-wordmark-inverse.svga)">id</text></g>
  <!-- eyebrow -->
  <text x="92" y="430" font-family="Manrope" font-size="26" font-weight="700" letter-spacing="4" fill="#34D399">PENGUMUMAN</text>
  <!-- headline -->
  <text x="92" y="520" font-family="Manrope" font-size="78" font-weight="800" letter-spacing="-1.5" fill="#FFFFFF">Solusi teknologi,</text>
  <text x="92" y="610" font-family="Manrope" font-size="78" font-weight="800" letter-spacing="-1.5" fill="#FFFFFF">dituntaskan.</text>
  <!-- body placeholder -->
  <text x="92" y="690" font-family="Manrope" font-size="32" font-weight="500" fill="#D6DAFF">Dari perangkat keras hingga pengembangan</text>
  <text x="92" y="734" font-family="Manrope" font-size="32" font-weight="500" fill="#D6DAFF">perangkat lunak &#8212; satu mitra, tuntas.</text>
  <!-- brand bar bottom -->
  <rect x="0" y="980" width="1080" height="100" fill="#0B1020" opacity="0.45"/>
  <rect x="92" y="1018" width="64" height="6" rx="3" fill="url(#greenG)"/>
  <text x="178" y="1037" font-family="Manrope" font-size="30" font-weight="700" letter-spacing="0.5" fill="#FFFFFF">getresolved.id</text>
  <text x="988" y="1037" text-anchor="end" font-family="Manrope" font-size="26" font-weight="500" letter-spacing="1" fill="#B9BEEA">Get it resolved.</text>
  </svg>